/vscmnt/brussel_pixiu_data/_data_brussel/112/vsc11236/PredSimResults/SUBJ09opt3D/weighted-LRposFixed/expIG/worker_01.mot
version=1
nRows=4
nColumns=50
inDegrees=yes
endheader
                time	         pelvis_tilt	         pelvis_list	     pelvis_rotation	           pelvis_tx	           pelvis_ty	           pelvis_tz	       hip_flexion_r	     hip_adduction_r	      hip_rotation_r	        knee_angle_r	       ankle_angle_r	         mtp_angle_r	       hip_flexion_l	     hip_adduction_l	      hip_rotation_l	        knee_angle_l	       ankle_angle_l	         mtp_angle_l	    lumbar_extension	      lumbar_bending	     lumbar_rotation	 ercspn_r/activation	 intobl_r/activation	 extobl_r/activation	    abd_r/activation	    add_r/activation	hamstrings_r/activation	bifemsh_r/activation	glut_max_r/activation	iliopsoas_r/activation	rect_fem_r/activation	  vasti_r/activation	gastroc_r/activation	 soleus_r/activation	tib_ant_r/activation	 ercspn_l/activation	 intobl_l/activation	 extobl_l/activation	    abd_l/activation	    add_l/activation	hamstrings_l/activation	bifemsh_l/activation	glut_max_l/activation	iliopsoas_l/activation	rect_fem_l/activation	  vasti_l/activation	gastroc_l/activation	 soleus_l/activation	tib_ant_l/activation	
          0.64098820	         -4.01688220	          0.72246386	         -7.75617169	          0.76277595	          0.99026444	          0.00259720	        -13.88740594	         -2.25156083	         -4.92462749	         -9.81277314	          4.32862559	         36.17439504	         28.40966481	         -1.68473194	         -8.26707392	         -5.94982082	          3.94152263	          0.24400776	        -13.65128391	          1.58444645	          7.28430823	          0.02649692	          0.00999999	          0.00999999	          0.03122401	          0.01000000	          0.01699626	          0.21829911	          0.01226415	          0.03204860	          0.00999999	          0.00999999	          0.32077900	          0.22562035	          0.01297083	          0.02788813	          0.16368521	          0.03399918	          0.00999999	          0.23282816	          0.05654549	          0.12824262	          0.07973046	          0.13059524	          0.01216865	          0.00999999	          0.01405559	          0.00999999	          0.31706052	
          0.65380796	         -4.05723154	          0.83580076	         -7.77891774	          0.78253778	          0.98807167	          0.00183882	        -14.54676762	         -2.58897520	         -5.33525196	        -10.50022729	          3.22732389	         37.76809602	         28.39460389	         -1.53225162	         -8.40854066	         -7.83634575	          3.53088224	          0.20820557	        -13.14178225	          1.12444644	          7.47124255	          0.02183219	          0.00999999	          0.00999999	          0.02572709	          0.00999999	          0.01786038	          0.17986802	          0.01010508	          0.02640651	          0.00999999	          0.00999999	          0.29249637	          0.20307955	          0.01068734	          0.02297848	          0.13486878	          0.02801370	          0.06017768	          0.19183926	          0.06145996	          0.10566578	          0.11777253	          0.10760423	          0.01002638	          0.00999999	          0.01213662	          0.01213662	          0.35370295	
          0.66662772	         -4.07914691	          0.96592072	         -7.76964260	          0.80260698	          0.98619947	          0.00099990	        -15.02311669	         -2.96533810	         -5.76909845	        -11.55506289	          1.98828484	         39.33173068	         28.25957884	         -1.36179881	         -8.56200784	         -9.56477697	          2.99236525	          0.20052161	        -12.61285313	          0.64540631	          7.62428911	          0.02229694	          0.00999999	          0.00999999	          0.02119789	          0.00999999	          0.01471610	          0.14820264	          0.00999999	          0.05041831	          0.00999999	          0.00999999	          0.25087244	          0.17581727	          0.00999999	          0.01987163	          0.11112542	          0.02308195	          0.11522050	          0.20811498	          0.05408935	          0.08706354	          0.14774248	          0.08866073	          0.00999999	          0.00999999	          0.00999999	          0.00999999	          0.39640749	
          0.67944749	         -4.08434422	          1.09703299	         -7.72772372	          0.82264212	          0.98484212	          0.00006429	        -15.21718957	         -3.37221046	         -6.21983196	        -13.11714421	          0.63558616	         40.73662691	         28.14227576	         -1.18828455	         -8.74093103	        -11.34233350	          2.44578882	          0.16878316	        -12.10615077	          0.16591564	          7.74185639	          0.07389818	          0.00999999	          0.00999999	          0.01746605	          0.01715119	          0.02744596	          0.12211188	          0.00999999	          0.04154227	          0.00999999	          0.00999999	          0.20670688	          0.14486501	          0.00999999	          0.02909749	          0.09156202	          0.01901842	          0.16401772	          0.24567414	          0.05180359	          0.07173619	          0.14913924	          0.07305220	          0.00999999	          0.06181106	          0.00999999	          0.00999999	          0.41762380	
